<?xml version="1.0" encoding="UTF-8" standalone="no"?>
<!-- Created with Inkscape (http://www.inkscape.org/) -->

<svg
   width="74.157501mm"
   height="28.040796mm"
   viewBox="0 0 74.157501 28.040796"
   version="1.1"
   id="svg1"
   xml:space="preserve"
   xmlns="http://www.w3.org/2000/svg"
   xmlns:svg="http://www.w3.org/2000/svg"><defs
     id="defs1" /><g
     id="layer1"
     transform="translate(-67.903963,-139.69462)"><path
       style="font-weight:500;font-size:85.3333px;font-family:Poppins;-inkscape-font-specification:'Poppins Medium';white-space:pre;fill:#0046ff;stroke:#0046ff;stroke-width:0.7;stroke-linecap:round;stroke-linejoin:round;stroke-dasharray:none;stroke-dashoffset:0;stroke-opacity:1;paint-order:stroke markers fill"
       d="m 79.261335,145.73417 q 0,1.19662 -0.564444,2.25777 -0.564443,1.06116 -1.80622,1.73849 -1.241778,0.65475 -3.183466,0.65475 h -2.844797 v 6.36694 H 68.28854 v -15.69155 h 5.418665 q 1.806224,0 3.048,0.63218 1.264354,0.60959 1.873954,1.67075 0.632177,1.06115 0.632176,2.37067 z m -5.554131,2.55128 q 1.467557,0 2.190044,-0.65475 0.72249,-0.67734 0.72249,-1.89653 0,-2.57387 -2.912534,-2.57387 h -2.844797 v 5.12515 z m 7.157138,2.19005 q 0,-1.87396 0.767644,-3.31894 0.790223,-1.44497 2.12231,-2.23519 1.354668,-0.8128 2.980267,-0.8128 1.467553,0 2.551287,0.58702 1.10631,0.56444 1.761066,1.4224 v -1.80622 h 2.596444 v 12.44035 h -2.596444 v -1.85138 q -0.654756,0.88053 -1.783643,1.46756 -1.12889,0.58702 -2.573866,0.58702 -1.60302,0 -2.93511,-0.8128 -1.332087,-0.83538 -2.12231,-2.30294 -0.767644,-1.49013 -0.767645,-3.36408 z m 10.182574,0.0452 q 0,-1.28693 -0.541866,-2.2352 -0.51929,-0.94826 -1.377244,-1.44497 -0.857956,-0.49672 -1.851377,-0.49672 -0.993423,0 -1.851377,0.49672 -0.857956,0.47413 -1.399823,1.42239 -0.519289,0.92569 -0.519289,2.21263 0,1.28693 0.519289,2.25777 0.541867,0.97085 1.399823,1.49014 0.880531,0.49671 1.851377,0.49671 0.993421,0 1.851377,-0.49671 0.857954,-0.49671 1.377244,-1.44498 0.541866,-0.97085 0.541866,-2.25778 z m 8.556961,-4.40266 q 0.564443,-0.94827 1.490133,-1.46756 0.94827,-0.54186 2.2352,-0.54186 v 2.66417 h -0.65475 q -1.51271,0 -2.30294,0.76765 -0.767643,0.76764 -0.767643,2.66418 v 6.54756 h -2.573864 v -12.44035 h 2.573864 z m 5.238063,4.40266 q 0,-1.91911 0.76764,-3.36409 0.79023,-1.46755 2.16747,-2.25777 1.37724,-0.79022 3.16089,-0.79022 2.25777,0 3.72533,1.08373 1.49013,1.06115 2.00942,3.048 h -2.77706 q -0.33867,-0.92569 -1.08374,-1.44498 -0.74506,-0.51929 -1.87395,-0.51929 -1.58045,0 -2.52871,1.12889 -0.92569,1.10632 -0.92569,3.11574 0,2.00942 0.92569,3.1383 0.94826,1.1289 2.52871,1.1289 2.2352,0 2.95769,-1.96427 h 2.77706 q -0.54186,1.89653 -2.032,3.02543 -1.49013,1.10631 -3.70275,1.10631 -1.78365,0 -3.16089,-0.79022 -1.37724,-0.8128 -2.16747,-2.25778 -0.76764,-1.46756 -0.76764,-3.38668 z m 25.8064,-0.29351 q 0,0.69991 -0.0903,1.26436 h -9.50524 q 0.11289,1.49013 1.10631,2.39324 0.99342,0.90311 2.4384,0.90311 2.07715,0 2.93511,-1.73849 h 2.77706 q -0.56444,1.71591 -2.05457,2.82222 -1.46756,1.08374 -3.6576,1.08374 -1.78365,0 -3.20605,-0.79022 -1.39982,-0.8128 -2.21262,-2.25778 -0.79022,-1.46756 -0.79022,-3.38667 0,-1.91911 0.76765,-3.36409 0.79022,-1.46755 2.19004,-2.25777 1.4224,-0.79022 3.2512,-0.79022 1.76106,0 3.13831,0.76764 1.37724,0.76764 2.14488,2.16747 0.76765,1.37724 0.76765,3.18346 z m -2.68676,-0.8128 q -0.0226,-1.4224 -1.016,-2.28035 -0.99342,-0.85796 -2.46097,-0.85796 -1.33209,0 -2.28036,0.85796 -0.94826,0.83537 -1.12888,2.28035 z m 7.78935,-9.36977 v 16.70755 h -2.57387 v -16.70755 z m 5.96053,0 v 16.70755 h -2.57387 v -16.70755 z"
       id="text1"
       aria-label="Parcell" /><text
       xml:space="preserve"
       style="font-style:normal;font-variant:normal;font-weight:500;font-stretch:normal;font-size:6.35px;font-family:Poppins;-inkscape-font-specification:'Poppins Medium';fill:#0046ff;fill-opacity:1;stroke:#0046ff;stroke-width:0.2;stroke-linecap:round;stroke-linejoin:round;stroke-dasharray:none;stroke-dashoffset:0;stroke-opacity:1;paint-order:stroke markers fill"
       x="67.730911"
       y="165.92091"
       id="text6"><tspan
         id="tspan6"
         style="font-style:normal;font-variant:normal;font-weight:normal;font-stretch:normal;font-size:6.35px;font-family:Poppins;-inkscape-font-specification:Poppins;stroke-width:0.2;stroke-dasharray:none"
         x="67.730911"
         y="165.92091">Coming soon..</tspan></text></g></svg>
