<?xml version="1.0" encoding="UTF-8"?>
<!-- Created with Inkscape (http://www.inkscape.org/) -->
<svg width="210mm" height="297mm" version="1.1" viewBox="0 0 210 297" xml:space="preserve" xmlns="http://www.w3.org/2000/svg"><g fill="#0046ff" stroke="#0046ff" stroke-linecap="round" stroke-linejoin="round"><path d="m68.004 163.7q0-0.6477 0.2921-1.162 0.2921-0.5207 0.79375-0.8128 0.508-0.2921 1.124-0.2921 0.7239 0 1.2636 0.34925t0.7874 0.9906h-0.69215q-0.18415-0.40005-0.5334-0.61595-0.3429-0.2159-0.8255-0.2159-0.46355 0-0.83185 0.2159t-0.57785 0.61595q-0.20955 0.3937-0.20955 0.9271 0 0.52705 0.20955 0.9271 0.20955 0.3937 0.57785 0.6096t0.83185 0.2159q0.4826 0 0.8255-0.20955 0.34925-0.2159 0.5334-0.61595h0.69215q-0.24765 0.635-0.7874 0.98425-0.53975 0.3429-1.2636 0.3429-0.61595 0-1.124-0.28575-0.50165-0.2921-0.79375-0.80645t-0.2921-1.162zm6.6357 2.2733q-0.48895 0-0.889-0.22225-0.3937-0.22225-0.6223-0.62865-0.22225-0.41275-0.22225-0.9525 0-0.5334 0.2286-0.9398 0.23495-0.41275 0.635-0.62865 0.40005-0.22225 0.89535-0.22225t0.89535 0.22225q0.40005 0.2159 0.62865 0.6223 0.23495 0.4064 0.23495 0.94615t-0.2413 0.9525q-0.23495 0.4064-0.64135 0.62865t-0.9017 0.22225zm0-0.508q0.31115 0 0.5842-0.14605t0.43815-0.43815q0.17145-0.2921 0.17145-0.7112t-0.1651-0.7112-0.4318-0.4318q-0.2667-0.14605-0.57785-0.14605-0.3175 0-0.5842 0.14605-0.26035 0.1397-0.4191 0.4318t-0.15875 0.7112q0 0.42545 0.1524 0.71755 0.15875 0.2921 0.4191 0.43815 0.26035 0.1397 0.5715 0.1397zm6.731-3.0924q0.4064 0 0.7239 0.17145 0.3175 0.1651 0.50165 0.50165t0.18415 0.81915v2.051h-0.5715v-1.9685q0-0.5207-0.26035-0.79375-0.254-0.2794-0.69215-0.2794-0.45085 0-0.71755 0.2921-0.2667 0.28575-0.2667 0.83185v1.9177h-0.5715v-1.9685q0-0.5207-0.26035-0.79375-0.254-0.2794-0.69215-0.2794-0.45085 0-0.71755 0.2921-0.2667 0.28575-0.2667 0.83185v1.9177h-0.57785v-3.4798h0.57785v0.50165q0.17145-0.27305 0.4572-0.4191 0.2921-0.14605 0.64135-0.14605 0.43815 0 0.7747 0.19685t0.50165 0.57785q0.14605-0.3683 0.4826-0.5715t0.7493-0.2032zm2.6543-0.50165q-0.1651 0-0.2794-0.1143t-0.1143-0.2794 0.1143-0.2794 0.2794-0.1143q0.15875 0 0.2667 0.1143 0.1143 0.1143 0.1143 0.2794t-0.1143 0.2794q-0.10795 0.1143-0.2667 0.1143zm0.2794 0.56515v3.4798h-0.57785v-3.4798zm2.6797-0.0635q0.635 0 1.0287 0.38735 0.3937 0.381 0.3937 1.1049v2.051h-0.5715v-1.9685q0-0.5207-0.26035-0.79375-0.26035-0.2794-0.7112-0.2794-0.4572 0-0.73025 0.28575-0.2667 0.28575-0.2667 0.83185v1.924h-0.57785v-3.4798h0.57785v0.4953q0.17145-0.2667 0.46355-0.41275 0.29845-0.14605 0.65405-0.14605zm3.8036 6e-3q0.45085 0 0.7874 0.19685 0.3429 0.19685 0.508 0.4953v-0.635h0.5842v3.556q0 0.47625-0.2032 0.84455-0.2032 0.37465-0.5842 0.5842-0.37465 0.20955-0.8763 0.20955-0.6858 0-1.143-0.32385t-0.53975-0.88265h0.5715q0.09525 0.3175 0.3937 0.508 0.29845 0.19685 0.71755 0.19685 0.47625 0 0.7747-0.29845 0.3048-0.29845 0.3048-0.8382v-0.73025q-0.17145 0.3048-0.508 0.508t-0.7874 0.2032q-0.46355 0-0.84455-0.2286-0.37465-0.2286-0.59055-0.64135t-0.2159-0.9398q0-0.5334 0.2159-0.93345 0.2159-0.4064 0.59055-0.62865 0.381-0.22225 0.84455-0.22225zm1.2954 1.7907q0-0.3937-0.15875-0.6858t-0.4318-0.4445q-0.2667-0.15875-0.59055-0.15875t-0.59055 0.1524-0.42545 0.4445-0.15875 0.6858q0 0.40005 0.15875 0.6985 0.15875 0.2921 0.42545 0.45085 0.2667 0.1524 0.59055 0.1524t0.59055-0.1524q0.27305-0.15875 0.4318-0.45085 0.15875-0.29845 0.15875-0.69215zm4.4895 1.8034q-0.40005 0-0.71755-0.13335-0.3175-0.1397-0.50165-0.381-0.18415-0.24765-0.2032-0.56515h0.5969q0.0254 0.26035 0.2413 0.42545 0.22225 0.1651 0.57785 0.1651 0.3302 0 0.5207-0.14605t0.1905-0.3683q0-0.2286-0.2032-0.33655-0.2032-0.1143-0.62865-0.22225-0.38735-0.1016-0.635-0.2032-0.2413-0.10795-0.4191-0.31115-0.17145-0.20955-0.17145-0.5461 0-0.2667 0.15875-0.48895t0.45085-0.34925q0.2921-0.13335 0.66675-0.13335 0.57785 0 0.93345 0.2921t0.381 0.8001h-0.57785q-0.01905-0.27305-0.22225-0.43815-0.19685-0.1651-0.5334-0.1651-0.31115 0-0.4953 0.13335t-0.18415 0.34925q0 0.17145 0.10795 0.28575 0.1143 0.10795 0.2794 0.1778 0.17145 0.0635 0.4699 0.14605 0.37465 0.1016 0.6096 0.2032 0.23495 0.0953 0.40005 0.2921 0.17145 0.19685 0.1778 0.51435 0 0.28575-0.15875 0.51435t-0.45085 0.36195q-0.28575 0.127-0.6604 0.127zm3.6004 0q-0.48895 0-0.889-0.22225-0.3937-0.22225-0.6223-0.62865-0.22225-0.41275-0.22225-0.9525 0-0.5334 0.2286-0.9398 0.23495-0.41275 0.635-0.62865 0.40005-0.22225 0.89535-0.22225 0.4953 0 0.89535 0.22225 0.40005 0.2159 0.62865 0.6223 0.23495 0.4064 0.23495 0.94615t-0.2413 0.9525q-0.23495 0.4064-0.64135 0.62865t-0.9017 0.22225zm0-0.508q0.31115 0 0.5842-0.14605t0.43815-0.43815q0.17145-0.2921 0.17145-0.7112t-0.1651-0.7112-0.4318-0.4318q-0.2667-0.14605-0.57785-0.14605-0.3175 0-0.5842 0.14605-0.26035 0.1397-0.4191 0.4318t-0.15875 0.7112q0 0.42545 0.1524 0.71755 0.15875 0.2921 0.4191 0.43815 0.26035 0.1397 0.5715 0.1397zm4.064 0.508q-0.48895 0-0.889-0.22225-0.3937-0.22225-0.6223-0.62865-0.22225-0.41275-0.22225-0.9525 0-0.5334 0.2286-0.9398 0.23495-0.41275 0.635-0.62865 0.40005-0.22225 0.89535-0.22225t0.89535 0.22225q0.40005 0.2159 0.62865 0.6223 0.23495 0.4064 0.23495 0.94615t-0.2413 0.9525q-0.23495 0.4064-0.64135 0.62865t-0.9017 0.22225zm0-0.508q0.31115 0 0.5842-0.14605t0.43815-0.43815q0.17145-0.2921 0.17145-0.7112t-0.1651-0.7112-0.4318-0.4318q-0.2667-0.14605-0.57785-0.14605-0.3175 0-0.5842 0.14605-0.26035 0.1397-0.4191 0.4318t-0.15875 0.7112q0 0.42545 0.1524 0.71755 0.15875 0.2921 0.4191 0.43815 0.26035 0.1397 0.5715 0.1397zm4.2418-3.0924q0.635 0 1.0287 0.38735 0.3937 0.381 0.3937 1.1049v2.051h-0.5715v-1.9685q0-0.5207-0.26035-0.79375-0.26035-0.2794-0.7112-0.2794-0.4572 0-0.73025 0.28575-0.2667 0.28575-0.2667 0.83185v1.924h-0.57785v-3.4798h0.57785v0.4953q0.17145-0.2667 0.46355-0.41275 0.29845-0.14605 0.65405-0.14605zm2.5527 3.5814q-0.1651 0-0.2794-0.1143t-0.1143-0.2794 0.1143-0.2794 0.2794-0.1143q0.15875 0 0.2667 0.1143 0.1143 0.1143 0.1143 0.2794t-0.1143 0.2794q-0.10795 0.1143-0.2667 0.1143zm1.3335 0q-0.1651 0-0.2794-0.1143t-0.1143-0.2794 0.1143-0.2794 0.2794-0.1143q0.15875 0 0.2667 0.1143 0.1143 0.1143 0.1143 0.2794t-0.1143 0.2794q-0.10795 0.1143-0.2667 0.1143z" stroke-width=".2" style="paint-order:stroke markers fill" aria-label="Coming soon.."/><path d="m79.261 145.73q0 1.1966-0.56444 2.2578-0.56444 1.0612-1.8062 1.7385-1.2418 0.65475-3.1835 0.65475h-2.8448v6.3669h-2.5739v-15.692h5.4187q1.8062 0 3.048 0.63218 1.2644 0.60959 1.874 1.6708 0.63218 1.0612 0.63218 2.3707zm-5.5541 2.5513q1.4676 0 2.19-0.65475 0.72249-0.67734 0.72249-1.8965 0-2.5739-2.9125-2.5739h-2.8448v5.1252zm7.1571 2.19q0-1.874 0.76764-3.3189 0.79022-1.445 2.1223-2.2352 1.3547-0.8128 2.9803-0.8128 1.4676 0 2.5513 0.58702 1.1063 0.56444 1.7611 1.4224v-1.8062h2.5964v12.44h-2.5964v-1.8514q-0.65476 0.88053-1.7836 1.4676-1.1289 0.58702-2.5739 0.58702-1.603 0-2.9351-0.8128-1.3321-0.83538-2.1223-2.3029-0.76764-1.4901-0.76764-3.3641zm10.183 0.0452q0-1.2869-0.54187-2.2352-0.51929-0.94826-1.3772-1.445-0.85796-0.49672-1.8514-0.49672-0.99342 0-1.8514 0.49672-0.85796 0.47413-1.3998 1.4224-0.51929 0.92569-0.51929 2.2126 0 1.2869 0.51929 2.2578 0.54187 0.97085 1.3998 1.4901 0.88053 0.49671 1.8514 0.49671 0.99342 0 1.8514-0.49671 0.85795-0.49671 1.3772-1.445 0.54187-0.97085 0.54187-2.2578zm8.557-4.4027q0.56444-0.94827 1.4901-1.4676 0.94827-0.54186 2.2352-0.54186v2.6642h-0.65475q-1.5127 0-2.3029 0.76765-0.76764 0.76764-0.76764 2.6642v6.5476h-2.5739v-12.44h2.5739zm5.2381 4.4027q0-1.9191 0.76764-3.3641 0.79023-1.4676 2.1675-2.2578t3.1609-0.79022q2.2578 0 3.7253 1.0837 1.4901 1.0612 2.0094 3.048h-2.7771q-0.33867-0.92569-1.0837-1.445-0.74506-0.51929-1.874-0.51929-1.5804 0-2.5287 1.1289-0.92569 1.1063-0.92569 3.1157t0.92569 3.1383q0.94826 1.1289 2.5287 1.1289 2.2352 0 2.9577-1.9643h2.7771q-0.54186 1.8965-2.032 3.0254-1.4901 1.1063-3.7028 1.1063-1.7836 0-3.1609-0.79022-1.3772-0.8128-2.1675-2.2578-0.76764-1.4676-0.76764-3.3867zm25.806-0.29351q0 0.69991-0.0903 1.2644h-9.5052q0.11289 1.4901 1.1063 2.3932t2.4384 0.90311q2.0772 0 2.9351-1.7385h2.7771q-0.56444 1.7159-2.0546 2.8222-1.4676 1.0837-3.6576 1.0837-1.7836 0-3.206-0.79022-1.3998-0.8128-2.2126-2.2578-0.79022-1.4676-0.79022-3.3867t0.76765-3.3641q0.79022-1.4676 2.19-2.2578 1.4224-0.79022 3.2512-0.79022 1.7611 0 3.1383 0.76764 1.3772 0.76764 2.1449 2.1675 0.76765 1.3772 0.76765 3.1835zm-2.6868-0.8128q-0.0226-1.4224-1.016-2.2804-0.99342-0.85796-2.461-0.85796-1.3321 0-2.2804 0.85796-0.94826 0.83537-1.1289 2.2804zm7.7894-9.3698v16.708h-2.5739v-16.708zm5.9605 0v16.708h-2.5739v-16.708z" stroke-width=".7" style="paint-order:stroke markers fill;white-space:pre" aria-label="Parcell"/></g></svg>
